<svg width="81" height="81" viewBox="0 0 81 81" fill="none" xmlns="http://www.w3.org/2000/svg">
<path d="M18.2251 4.05029C15.5398 4.05029 12.9644 5.11703 11.0656 7.01584C9.16684 8.91464 8.1001 11.49 8.1001 14.1753V50.6253C8.1001 53.3106 9.16684 55.8859 11.0656 57.7848C12.9644 59.6836 15.5398 60.7503 18.2251 60.7503H32.4001V36.4503H22.2751C21.738 36.4503 21.223 36.237 20.8432 35.8572C20.4634 35.4774 20.2501 34.9624 20.2501 34.4253C20.2501 33.8882 20.4634 33.3732 20.8432 32.9934C21.223 32.6136 21.738 32.4003 22.2751 32.4003H33.0886C33.6186 30.9063 34.4359 29.5304 35.4943 28.3503H22.2751C21.738 28.3503 21.223 28.1369 20.8432 27.7572C20.4634 27.3774 20.2501 26.8624 20.2501 26.3253C20.2501 25.7882 20.4634 25.2732 20.8432 24.8934C21.223 24.5136 21.738 24.3003 22.2751 24.3003H64.8001V14.1753C64.8001 11.49 63.7334 8.91464 61.8346 7.01584C59.9358 5.11703 57.3604 4.05029 54.6751 4.05029H18.2251ZM20.2501 18.2253C20.2501 17.6882 20.4634 17.1732 20.8432 16.7934C21.223 16.4136 21.738 16.2003 22.2751 16.2003H50.6251C51.1622 16.2003 51.6772 16.4136 52.057 16.7934C52.4368 17.1732 52.6501 17.6882 52.6501 18.2253C52.6501 18.7624 52.4368 19.2774 52.057 19.6572C51.6772 20.0369 51.1622 20.2503 50.6251 20.2503H22.2751C21.738 20.2503 21.223 20.0369 20.8432 19.6572C20.4634 19.2774 20.2501 18.7624 20.2501 18.2253ZM72.9001 36.4503C72.9001 34.302 72.0467 32.2418 70.5277 30.7227C69.0086 29.2037 66.9484 28.3503 64.8001 28.3503H44.5501C42.4018 28.3503 40.3416 29.2037 38.8225 30.7227C37.3035 32.2418 36.4501 34.302 36.4501 36.4503V68.8503C36.4501 70.9986 37.3035 73.0588 38.8225 74.5779C40.3416 76.0969 42.4018 76.9503 44.5501 76.9503H70.8751C71.4122 76.9503 71.9272 76.737 72.307 76.3572C72.6868 75.9774 72.9001 75.4624 72.9001 74.9253C72.9001 74.3882 72.6868 73.8732 72.307 73.4934C71.9272 73.1136 71.4122 72.9003 70.8751 72.9003H44.5501C43.476 72.9003 42.4458 72.4736 41.6863 71.7141C40.9268 70.9546 40.5001 69.9244 40.5001 68.8503V68.8381H70.8751C71.4122 68.8381 71.9272 68.6248 72.307 68.245C72.6868 67.8653 72.9001 67.3502 72.9001 66.8131V36.4503ZM40.5001 64.7881V36.4503C40.5001 35.3762 40.9268 34.346 41.6863 33.5865C42.4458 32.827 43.476 32.4003 44.5501 32.4003H64.8001C65.8742 32.4003 66.9044 32.827 67.6639 33.5865C68.4234 34.346 68.8501 35.3762 68.8501 36.4503V64.7881H40.5001Z" fill="#4ECB71"/>
</svg>
