<svg width="72" height="72" viewBox="0 0 72 72" fill="none" xmlns="http://www.w3.org/2000/svg">
<path d="M54 9C57.1826 9 60.2348 10.2643 62.4853 12.5147C64.7357 14.7652 66 17.8174 66 21V45C66 48.1826 64.7357 51.2348 62.4853 53.4853C60.2348 55.7357 57.1826 57 54 57H39.828L25.542 65.571C25.1118 65.8292 24.6237 65.9753 24.1223 65.9961C23.621 66.0168 23.1225 65.9115 22.6724 65.6897C22.2223 65.468 21.835 65.1369 21.546 64.7267C21.257 64.3166 21.0754 63.8405 21.018 63.342L21 63V57H18C14.9213 57 11.9603 55.8167 9.72956 53.6948C7.49881 51.573 6.16894 48.6749 6.015 45.6L6 45V21C6 17.8174 7.26428 14.7652 9.51472 12.5147C11.7652 10.2643 14.8174 9 18 9H54ZM45.6 36.858C45.0319 36.3011 44.2658 35.9927 43.4703 36.0006C42.6748 36.0085 41.915 36.332 41.358 36.9C40.6597 37.613 39.8261 38.1794 38.906 38.5661C37.986 38.9528 36.998 39.152 36 39.152C35.002 39.152 34.014 38.9528 33.094 38.5661C32.174 38.1794 31.3403 37.613 30.642 36.9C30.0822 36.3451 29.3265 36.0328 28.5383 36.0306C27.7501 36.0284 26.9926 36.3366 26.4298 36.8884C25.8669 37.4402 25.5439 38.1914 25.5304 38.9795C25.517 39.7676 25.8143 40.5293 26.358 41.1C27.6149 42.3826 29.1151 43.4016 30.7708 44.0972C32.4264 44.7928 34.2042 45.1511 36 45.1511C37.7958 45.1511 39.5736 44.7928 41.2292 44.0972C42.8849 43.4016 44.3851 42.3826 45.642 41.1C46.1989 40.5319 46.5073 39.7658 46.4994 38.9703C46.4915 38.1748 46.168 37.415 45.6 36.858ZM28.53 24H28.5C27.7044 24 26.9413 24.3161 26.3787 24.8787C25.8161 25.4413 25.5 26.2044 25.5 27C25.5 27.7956 25.8161 28.5587 26.3787 29.1213C26.9413 29.6839 27.7044 30 28.5 30H28.53C29.3257 30 30.0887 29.6839 30.6513 29.1213C31.2139 28.5587 31.53 27.7956 31.53 27C31.53 26.2044 31.2139 25.4413 30.6513 24.8787C30.0887 24.3161 29.3257 24 28.53 24ZM43.53 24H43.5C42.7044 24 41.9413 24.3161 41.3787 24.8787C40.8161 25.4413 40.5 26.2044 40.5 27C40.5 27.7956 40.8161 28.5587 41.3787 29.1213C41.9413 29.6839 42.7044 30 43.5 30H43.53C44.3257 30 45.0887 29.6839 45.6513 29.1213C46.2139 28.5587 46.53 27.7956 46.53 27C46.53 26.2044 46.2139 25.4413 45.6513 24.8787C45.0887 24.3161 44.3257 24 43.53 24Z" fill="#4ECB71"/>
</svg>
