<svg width="65" height="66" viewBox="0 0 65 66" fill="none" xmlns="http://www.w3.org/2000/svg">
<path d="M32.5001 10.9565V5.47827H59.5834V10.9565H32.5001ZM32.5001 21.9129V16.4347H59.5834V21.9129H32.5001ZM32.5001 32.8694V27.3912H59.5834V32.8694H32.5001ZM51.323 60.2605C45.6806 60.2605 40.106 59.0169 34.599 56.5298C29.0921 54.0427 24.0817 50.5156 19.5678 45.9486C15.0539 41.3816 11.5674 36.3143 9.10821 30.7466C6.64904 25.1789 5.41855 19.5409 5.41675 13.8326C5.41675 13.0108 5.68758 12.326 6.22925 11.7782C6.77091 11.2304 7.448 10.9565 8.2605 10.9565H19.2292C19.8612 10.9565 20.4254 11.1738 20.922 11.6084C21.4185 12.043 21.7119 12.5561 21.8022 13.1478L23.5626 22.7347C23.6529 23.4651 23.6303 24.0814 23.4949 24.5836C23.3595 25.0857 23.1112 25.5194 22.7501 25.8846L16.1824 32.5955C17.0852 34.2846 18.1567 35.9171 19.3972 37.493C20.6376 39.0689 22.0035 40.5864 23.4949 42.0454C24.8942 43.4606 26.3612 44.7735 27.8959 45.9842C29.4306 47.1949 31.0556 48.3015 32.7709 49.304L39.1355 42.8671C39.5417 42.4563 40.0726 42.1486 40.728 41.944C41.3834 41.7395 42.0262 41.682 42.6563 41.7715L52.0001 43.6889C52.632 43.8715 53.1511 44.2029 53.5574 44.6831C53.9636 45.1634 54.1667 45.6994 54.1667 46.291V57.3844C54.1667 58.2061 53.8959 58.8909 53.3542 59.4387C52.8126 59.9866 52.1355 60.2605 51.323 60.2605Z" fill="#4ECB71"/>
</svg>
