<svg width="73" height="73" viewBox="0 0 73 73" fill="none" xmlns="http://www.w3.org/2000/svg">
<path d="M36.4999 23.9532C34.0184 23.9532 31.5926 24.6891 29.5292 26.0678C27.4659 27.4464 25.8577 29.406 24.9081 31.6986C23.9585 33.9913 23.71 36.514 24.1941 38.9479C24.6782 41.3817 25.8732 43.6174 27.6279 45.3721C29.3826 47.1268 31.6183 48.3218 34.0521 48.8059C36.486 49.29 39.0087 49.0416 41.3014 48.0919C43.594 47.1423 45.5536 45.5341 46.9323 43.4708C48.3109 41.4075 49.0468 38.9816 49.0468 36.5001C49.043 33.1736 47.7199 29.9845 45.3677 27.6323C43.0155 25.2801 39.8264 23.957 36.4999 23.9532ZM36.4999 42.2032C35.3719 42.2032 34.2693 41.8688 33.3314 41.2421C32.3935 40.6154 31.6626 39.7247 31.2309 38.6826C30.7992 37.6405 30.6863 36.4938 30.9064 35.3875C31.1264 34.2812 31.6696 33.265 32.4672 32.4674C33.2648 31.6698 34.281 31.1266 35.3873 30.9066C36.4936 30.6865 37.6403 30.7995 38.6824 31.2311C39.7245 31.6628 40.6152 32.3937 41.2419 33.3316C41.8686 34.2695 42.203 35.3721 42.203 36.5001C42.203 38.0127 41.6022 39.4633 40.5326 40.5328C39.4631 41.6024 38.0125 42.2032 36.4999 42.2032ZM58.5682 45.8247C57.5391 48.2566 56.115 50.5016 54.3535 52.4689C53.7485 53.1454 52.8995 53.5538 51.9934 53.6043C51.0872 53.6549 50.1981 53.3434 49.5216 52.7383C48.8451 52.1333 48.4366 51.2843 48.3861 50.3782C48.3356 49.472 48.6471 48.5829 49.2521 47.9064C52.0625 44.7718 53.6167 40.7101 53.6167 36.5001C53.6167 32.2902 52.0625 28.2284 49.2521 25.0939C48.9525 24.7589 48.7219 24.3682 48.5733 23.9441C48.4247 23.52 48.3611 23.0708 48.3861 22.6221C48.4111 22.1734 48.5243 21.734 48.7191 21.329C48.9139 20.9241 49.1866 20.5615 49.5216 20.2619C50.1981 19.6569 51.0872 19.3454 51.9934 19.3959C52.4421 19.4209 52.8814 19.5341 53.2864 19.7289C53.6913 19.9237 54.054 20.1964 54.3535 20.5314C57.3787 23.9158 59.3807 28.0896 60.1268 32.5672C60.8729 37.0448 60.3324 41.6422 58.5682 45.8247ZM23.7477 47.9064C24.3527 48.5829 24.6643 49.472 24.6137 50.3782C24.5632 51.2843 24.1547 52.1333 23.4782 52.7383C22.8018 53.3434 21.9126 53.6549 21.0064 53.6043C20.1003 53.5538 19.2513 53.1454 18.6463 52.4689C14.7148 48.079 12.5409 42.3931 12.5409 36.5001C12.5409 30.6071 14.7148 24.9212 18.6463 20.5314C19.2513 19.8549 20.1003 19.4464 21.0064 19.3959C21.9126 19.3454 22.8018 19.6569 23.4782 20.2619C24.1547 20.8669 24.5632 21.7159 24.6137 22.6221C24.6643 23.5282 24.3527 24.4174 23.7477 25.0939C20.9373 28.2284 19.3831 32.2902 19.3831 36.5001C19.3831 40.7101 20.9373 44.7718 23.7477 47.9064ZM71.8593 36.5001C71.8703 45.7551 68.2415 54.6433 61.7562 61.246C61.4463 61.5846 61.0714 61.8574 60.6538 62.0482C60.2363 62.239 59.7846 62.3438 59.3258 62.3564C58.8669 62.369 58.4101 62.2891 57.9828 62.1215C57.5554 61.9539 57.1661 61.7021 56.8381 61.381C56.51 61.0598 56.25 60.6759 56.0734 60.2522C55.8968 59.8285 55.8072 59.3736 55.8101 58.9145C55.8129 58.4555 55.9081 58.0017 56.09 57.5802C56.2718 57.1587 56.5366 56.7781 56.8686 56.461C62.1016 51.1349 65.0337 43.9668 65.0337 36.5001C65.0337 29.0334 62.1016 21.8653 56.8686 16.5392C56.2333 15.891 55.8816 15.0171 55.8906 14.1096C55.8997 13.2021 56.269 12.3353 56.9171 11.7001C57.5652 11.0648 58.4392 10.713 59.3467 10.7221C60.2542 10.7312 61.1209 11.1004 61.7562 11.7485C68.2429 18.3526 71.8718 27.2431 71.8593 36.5001ZM16.1312 56.461C16.7665 57.1092 17.1183 57.9831 17.1092 58.8906C17.1001 59.7981 16.7308 60.6649 16.0827 61.3001C15.4346 61.9354 14.5606 62.2872 13.6531 62.2781C12.7456 62.269 11.8789 61.8998 11.2436 61.2517C4.76079 54.6464 1.12891 45.7609 1.12891 36.5058C1.12891 27.2507 4.76079 18.3652 11.2436 11.76C11.8877 11.1615 12.7373 10.834 13.6164 10.8452C14.4955 10.8564 15.3365 11.2056 15.9651 11.8202C16.5937 12.4349 16.9616 13.2678 16.9925 14.1465C17.0234 15.0251 16.715 15.8819 16.1312 16.5392C10.8982 21.8653 7.96607 29.0334 7.96607 36.5001C7.96607 43.9668 10.8982 51.1349 16.1312 56.461Z" fill="#64D283"/>
</svg>
