<svg width="68" height="68" viewBox="0 0 68 68" fill="none" xmlns="http://www.w3.org/2000/svg">
<path d="M14.1656 19.8333L10.7146 22.1368C8.23823 23.7858 7.00006 24.6103 6.32856 25.8683C5.65706 27.1291 5.66273 28.6081 5.67406 31.5633C5.6854 35.1276 5.7194 38.7543 5.81006 42.4263C6.02823 51.1388 6.1359 55.4936 9.3404 58.6953C12.5421 61.8969 16.9564 62.0103 25.7851 62.2313C31.261 62.3682 36.7396 62.3682 42.2156 62.2313C51.0442 62.0103 55.4586 61.8998 58.6602 58.6953C61.8619 55.4936 61.9724 51.1388 62.1906 42.4263C62.2812 38.7543 62.3152 35.1276 62.3266 31.5661C62.3351 28.6081 62.3407 27.1291 61.6692 25.8711C61.0006 24.6103 59.7624 23.7858 57.2861 22.1368L53.8322 19.8333" stroke="#0DD171" stroke-width="2.94372" stroke-linecap="round" stroke-linejoin="round"/>
<path d="M5.66602 28.3333L25.2528 40.0859C29.5142 42.6416 31.6448 43.9166 33.9993 43.9166C36.3538 43.9166 38.4845 42.6416 42.7458 40.0831L62.3327 28.3333" stroke="#0DD171" stroke-width="2.94372" stroke-linecap="round" stroke-linejoin="round"/>
<path d="M14.166 33.9998V16.9998C14.166 11.6562 14.166 8.98717 15.8263 7.32684C17.4867 5.6665 20.1557 5.6665 25.4993 5.6665H42.4994C47.843 5.6665 50.512 5.6665 52.1724 7.32684C53.8327 8.98717 53.8327 11.6562 53.8327 16.9998V33.9998" stroke="#0DD171" stroke-width="2.94372" stroke-linecap="round" stroke-linejoin="round"/>
<path d="M22.666 28.3333L27.2334 15.2858C27.3562 14.9539 27.5787 14.6682 27.8704 14.4678C28.1621 14.2674 28.5087 14.1622 28.8625 14.1666C29.6049 14.1666 30.2622 14.62 30.4945 15.2858L35.0618 28.3333M42.4994 14.1666V28.3333M25.1452 23.6101H32.5827" stroke="#0DD171" stroke-width="2.94372" stroke-linecap="round" stroke-linejoin="round"/>
</svg>
