<svg width="61" height="61" viewBox="0 0 61 61" fill="none" xmlns="http://www.w3.org/2000/svg">
<path d="M33.0417 52.5947C30.7415 54.1909 27.0433 53.3369 26.2427 50.0276C26.0802 49.3571 25.7618 48.7345 25.3132 48.2103C24.8646 47.6862 24.2986 47.2754 23.6613 47.0113C23.0239 46.7473 22.3332 46.6374 21.6454 46.6907C20.9576 46.7441 20.292 46.9591 19.703 47.3182C15.7812 49.7074 11.2901 45.2188 13.6792 41.2945C14.0379 40.7057 14.2525 40.0406 14.3057 39.3532C14.3589 38.6658 14.2492 37.9756 13.9854 37.3387C13.7217 36.7017 13.3114 36.1359 12.7878 35.6874C12.2643 35.2389 11.6423 34.9202 10.9724 34.7573C6.50921 33.6745 6.50921 27.3255 10.9724 26.2427C11.6429 26.0802 12.2655 25.7618 12.7897 25.3132C13.3138 24.8646 13.7246 24.2986 13.9887 23.6613C14.2527 23.0239 14.3626 22.3332 14.3093 21.6454C14.2559 20.9576 14.0409 20.292 13.6818 19.703C11.2926 15.7812 15.7812 11.2901 19.7055 13.6792C22.2472 15.2246 25.5412 13.8572 26.2427 10.9724C27.3255 6.50921 33.6745 6.50921 34.7573 10.9724C34.9197 11.6429 35.2382 12.2655 35.6868 12.7897C36.1354 13.3138 36.7014 13.7246 37.3387 13.9887C37.9761 14.2527 38.6668 14.3626 39.3546 14.3093C40.0424 14.2559 40.708 14.0409 41.297 13.6818C45.2188 11.2926 49.7099 15.7812 47.3207 19.7055C46.9621 20.2943 46.7475 20.9594 46.6943 21.6468C46.6411 22.3342 46.7508 23.0244 47.0145 23.6613C47.2783 24.2983 47.6886 24.8641 48.2122 25.3126C48.7357 25.7611 49.3577 26.0798 50.0276 26.2427C53.8198 27.1628 54.3891 31.8827 51.7407 33.944" stroke="#4ECB71" stroke-width="4.92929" stroke-linecap="round" stroke-linejoin="round"/>
<path d="M22.875 30.5C22.875 32.5223 23.6783 34.4617 25.1083 35.8917C26.5383 37.3217 28.4777 38.125 30.5 38.125C32.5223 38.125 34.4617 37.3217 35.8917 35.8917C37.3217 34.4617 38.125 32.5223 38.125 30.5C38.125 28.4777 37.3217 26.5383 35.8917 25.1083C34.4617 23.6783 32.5223 22.875 30.5 22.875C28.4777 22.875 26.5383 23.6783 25.1083 25.1083C23.6783 26.5383 22.875 28.4777 22.875 30.5ZM43.2083 55.9167L55.9167 48.2917L43.2083 40.6667V55.9167Z" stroke="#4ECB71" stroke-width="4.92929" stroke-linecap="round" stroke-linejoin="round"/>
</svg>
