<svg width="19" height="9" viewBox="0 0 19 9" fill="none" xmlns="http://www.w3.org/2000/svg">
<path d="M0.391618 1.0252C0.642447 0.849011 0.982598 0.750031 1.33727 0.750031C1.69194 0.750031 2.03209 0.849011 2.28292 1.0252L9.36261 5.99976L16.4423 1.0252C16.5657 0.935439 16.7133 0.86384 16.8765 0.814584C17.0396 0.765328 17.2152 0.739401 17.3928 0.738317C17.5704 0.737232 17.7465 0.761013 17.9109 0.808268C18.0752 0.855524 18.2246 0.92531 18.3502 1.01355C18.4758 1.1018 18.5751 1.20673 18.6423 1.32223C18.7096 1.43774 18.7434 1.56149 18.7419 1.68629C18.7403 1.81108 18.7034 1.9344 18.6333 2.04907C18.5632 2.16373 18.4613 2.26744 18.3336 2.35413L10.3083 7.99316C10.0574 8.16935 9.71728 8.26833 9.36261 8.26833C9.00793 8.26833 8.66778 8.16935 8.41695 7.99316L0.391618 2.35413C0.140865 2.17789 0 1.93888 0 1.68967C0 1.44046 0.140865 1.20145 0.391618 1.0252Z" fill="#455A64"/>
</svg>
