<svg width="23" height="15" viewBox="0 0 23 15" fill="none" xmlns="http://www.w3.org/2000/svg">
<path d="M5.54273 0.0828372C6.46263 0.0828372 7.22714 0.213363 7.83627 0.474416C8.44539 0.729253 8.90223 1.10218 9.20679 1.59321C9.51757 2.08424 9.67296 2.68404 9.67296 3.39261C9.67296 4.07632 9.53311 4.65747 9.25341 5.13607C8.97992 5.60845 8.63185 5.97206 8.2092 6.2269C7.78654 6.48173 7.35145 6.62469 6.90393 6.65577C7.37632 6.6682 7.8487 6.78319 8.32108 7.00073C8.79967 7.21828 9.19747 7.56635 9.51446 8.04494C9.83145 8.52354 9.98995 9.16685 9.98995 9.97487C9.98995 10.7394 9.83767 11.4138 9.53311 11.998C9.22855 12.5761 8.74373 13.0267 8.07867 13.3499C7.41982 13.6731 6.55897 13.8347 5.49612 13.8347H0.396265V0.0828372H5.54273ZM2.74574 6.4693L1.93461 5.75141H4.70363C5.52408 5.75141 6.14564 5.58048 6.56829 5.23863C6.99717 4.89056 7.2116 4.40885 7.2116 3.79351C7.2116 3.37707 7.12148 3.04143 6.94123 2.7866C6.76719 2.53176 6.50614 2.34529 6.15807 2.2272C5.81622 2.10289 5.40288 2.04073 4.91807 2.04073H1.63627L2.74574 0.819378V6.4693ZM5.0113 11.8768C5.80689 11.8768 6.41912 11.6966 6.84799 11.3361C7.27687 10.9756 7.4913 10.4721 7.4913 9.82569C7.4913 9.45276 7.42293 9.13266 7.28619 8.86539C7.15566 8.59191 6.9692 8.37126 6.72679 8.20344C6.4906 8.0294 6.2109 7.90198 5.88769 7.82118C5.5707 7.74038 5.22263 7.69998 4.84348 7.69998H1.93461L2.74574 6.97276V13.0982L1.63627 11.8768H5.0113ZM13.0831 9.67652V7.93306H20.0103L19.7306 8.39923C19.7306 8.36193 19.7306 8.32153 19.7306 8.27802C19.7306 8.2283 19.7306 8.1879 19.7306 8.15682C19.7306 7.72795 19.6343 7.32705 19.4416 6.95411C19.2489 6.57497 18.9568 6.27041 18.5652 6.04043C18.1736 5.80424 17.6764 5.68615 17.0735 5.68615C16.4768 5.68615 15.9578 5.81356 15.5165 6.0684C15.0814 6.31702 14.7427 6.67752 14.5002 7.1499C14.2641 7.62229 14.146 8.1879 14.146 8.84675C14.146 9.52424 14.2609 10.1085 14.4909 10.5995C14.7209 11.0843 15.0565 11.4573 15.4978 11.7183C15.9454 11.9732 16.4892 12.1006 17.1294 12.1006C17.5645 12.1006 17.9405 12.0602 18.2575 11.9794C18.5745 11.8986 18.8325 11.7898 19.0314 11.6531C19.2365 11.5101 19.3888 11.3578 19.4882 11.1962C19.5939 11.0346 19.656 10.873 19.6747 10.7114H22.1174C22.0801 11.1278 21.9402 11.535 21.6978 11.9328C21.4616 12.3243 21.1291 12.6817 20.7002 13.0049C20.2714 13.3219 19.7493 13.5768 19.1339 13.7695C18.5248 13.9559 17.8287 14.0492 17.0455 14.0492C15.9827 14.0492 15.0534 13.8316 14.2578 13.3965C13.4622 12.9614 12.8407 12.3554 12.3932 11.5785C11.9519 10.8015 11.7312 9.91271 11.7312 8.91201C11.7312 7.88645 11.955 6.9883 12.4025 6.21757C12.8562 5.44685 13.484 4.84705 14.2858 4.41818C15.0876 3.98309 16.0075 3.76554 17.0455 3.76554C18.1146 3.76554 19.0376 3.98309 19.8145 4.41818C20.5977 4.85326 21.2006 5.45928 21.6233 6.23622C22.0459 7.00695 22.2572 7.90509 22.2572 8.93066C22.2572 9.06118 22.2541 9.20103 22.2479 9.3502C22.2417 9.49938 22.2324 9.60815 22.2199 9.67652H13.0831ZM14.2951 1.74239V0.698175H19.7772V1.74239H14.2951Z" fill="#D7DDE4"/>
</svg>
