<svg width="12" height="22" viewBox="0 0 12 22" fill="none" xmlns="http://www.w3.org/2000/svg">
<path d="M3.824 21.2256V10.2072H0.914221V7.49145H3.824V6.26288C3.824 5.46107 3.93176 4.75842 4.1473 4.15491C4.36284 3.54278 4.65598 3.02549 5.0267 2.60303C5.39743 2.18057 5.81989 1.84002 6.29407 1.58138C6.77688 1.31411 7.28986 1.12012 7.83302 0.99942C8.3848 0.878719 8.93227 0.818368 9.47542 0.818368C9.99272 0.818368 10.385 0.848543 10.6523 0.908894C10.9282 0.969245 11.1135 1.02097 11.2084 1.06408V3.80574C11.1049 3.77125 10.9238 3.73245 10.6652 3.68935C10.4152 3.63762 10.1436 3.61175 9.85046 3.61175C9.32455 3.61175 8.88916 3.68934 8.5443 3.84453C8.19943 3.9911 7.93217 4.19802 7.74249 4.46529C7.55282 4.73255 7.41918 5.04293 7.34159 5.39641C7.264 5.74128 7.2252 6.12062 7.2252 6.53446V7.49145H11.0273V10.2072H7.2252V21.2256H3.824Z" fill="#D6DCE3"/>
</svg>
