<svg width="20" height="19" viewBox="0 0 20 19" fill="none" xmlns="http://www.w3.org/2000/svg">
<path d="M1.24199 18.4285V5.97193H4.29162V18.4285H1.24199ZM2.77853 3.67298C2.27808 3.67298 1.84019 3.54005 1.46485 3.27418C1.09733 3.0005 0.913572 2.62125 0.913572 2.13644C0.913572 1.65944 1.09733 1.28802 1.46485 1.02215C1.84019 0.756286 2.27808 0.623354 2.77853 0.623354C3.27117 0.623354 3.70124 0.756286 4.06876 1.02215C4.43628 1.28802 4.62004 1.65944 4.62004 2.13644C4.62004 2.62125 4.43628 3.0005 4.06876 3.27418C3.70124 3.54005 3.27117 3.67298 2.77853 3.67298ZM16.1573 18.4285V12.904C16.1573 12.5912 16.1573 12.3175 16.1573 12.0829C16.1573 11.8405 16.1573 11.6215 16.1573 11.4261C16.1573 10.8631 16.0752 10.3587 15.911 9.91298C15.7546 9.45944 15.4809 9.10365 15.0899 8.84561C14.7068 8.58756 14.175 8.45854 13.4947 8.45854C12.9004 8.45854 12.3726 8.6032 11.9113 8.89253C11.4499 9.17403 11.0863 9.56501 10.8205 10.0655C10.5624 10.5581 10.4334 11.1289 10.4334 11.7779L9.38947 11.1328C9.38947 10.0928 9.62406 9.17012 10.0932 8.36471C10.5702 7.55147 11.2075 6.91418 12.0051 6.45283C12.8027 5.99147 13.6863 5.7608 14.6559 5.7608C15.6568 5.7608 16.4974 5.95629 17.1777 6.34726C17.8659 6.73824 18.382 7.29343 18.726 8.01283C19.0779 8.73223 19.2538 9.57674 19.2538 10.5464C19.2538 10.9217 19.2538 11.344 19.2538 11.8131C19.2538 12.2823 19.2538 12.7437 19.2538 13.1972V18.4285H16.1573ZM7.34857 18.4285V5.97193H10.4334V18.4285H7.34857Z" fill="#D5DCE3"/>
</svg>
